<?xml version="1.0" encoding="utf-8"?>
<!-- Generator: Adobe Illustrator 23.0.0, SVG Export Plug-In . SVG Version: 6.00 Build 0)  -->
<svg version="1.1" id="Layer_1" xmlns="http://www.w3.org/2000/svg" xmlns:xlink="http://www.w3.org/1999/xlink" x="0px" y="0px"
	 viewBox="0 0 523.9 176.7" style="enable-background:new 0 0 523.9 176.7;" xml:space="preserve">
<g>
	<defs>
		<rect id="SVGID_1_" x="-44" y="-184.4" width="612" height="612"/>
	</defs>
	<clipPath id="SVGID_2_">
		<use xlink:href="#SVGID_1_"  style="overflow:visible;"/>
	</clipPath>
</g>
<polygon points="13.6,57.6 13.6,78.8 35.3,78.8 35.3,89.4 2.8,89.4 2.8,47 35.3,47 35.3,57.6 "/>
<polygon points="133,47 133,89.4 100.4,89.4 100.4,78.8 122.1,78.8 122.1,57.6 67.9,57.6 67.9,47 "/>
<polygon points="67.9,89.4 78.7,89.4 78.7,163.5 57,163.5 57,15.2 78.7,15.2 78.7,36.4 89.6,36.4 89.6,4.6 46.2,4.6 46.2,174.1 
	89.6,174.1 89.6,78.8 67.9,78.8 "/>
<g>
	<path d="M319,150.3h13.6l-6.8-14.1L319,150.3z M343.2,172.6l-5.7-11.9h-23.4l-5.5,11.9h-12.8l30.1-62.5l30.3,62.5H343.2z"/>
	<g>
		<g>
			<path d="M154.6,173.4c-18,0-32.7-14.3-32.7-31.9c0-17.6,14.7-31.9,32.7-31.9c11.3,0,21.7,5.7,27.6,15l-9.9,5.4
				c-3.8-5.7-10.5-9.3-17.8-9.3c-11.7,0-21.3,9.3-21.3,20.8c0,11.5,9.6,20.8,21.3,20.8c8.5,0,16.2-4.8,19.5-12.4l0.9-1.9h-23v-10.7
				h35.3v4.2C187.2,159.1,172.6,173.4,154.6,173.4"/>
			<path d="M410.5,173.4c-18,0-32.7-14.3-32.7-31.9c0-17.6,14.7-31.9,32.7-31.9c11.2,0,21.7,5.7,27.7,15l-9.8,5.4
				c-3.8-5.7-10.5-9.3-17.8-9.3c-11.7,0-21.3,9.3-21.3,20.8c0,11.5,9.6,20.8,21.3,20.8c7.3,0,14-3.5,17.8-9.3l9.8,5.4
				C432.2,167.7,421.7,173.4,410.5,173.4"/>
		</g>
		<polygon points="471.8,172.6 471.8,110.4 509,110.4 509,121.3 483.2,121.3 483.2,136 505.7,136 505.7,146.9 483.2,146.9 
			483.2,161.7 509,161.7 509,172.6 		"/>
	</g>
	<path d="M233.7,135.9h11.8c4.7,0,7.9-2.9,7.9-7.2c0-4.2-3.3-7.2-7.9-7.2h-11.8V135.9z M257.4,172.6l-16.6-25.9h-7.1v25.9h-11.4
		v-62.3h23.6c10.4,0,18.9,8.3,18.9,18.5c0,6.9-4.1,13.2-10.5,16.1l-1.5,0.7l17.9,27H257.4z"/>
</g>
</svg>
